<svg id="Layer_1" enable-background="new 0 0 48 48" height="512" viewBox="0 0 48 48" width="512" xmlns="http://www.w3.org/2000/svg"><g fill="#f44336"><circle cx="24" cy="38" r="5"/><circle cx="24" cy="24" r="11.41"/><circle cx="24" cy="10" r="5"/><circle cx="31" cy="36.12" r="5"/><circle cx="17" cy="11.88" r="5"/><circle cx="36.12" cy="31" r="5"/><circle cx="11.88" cy="17" r="5"/><circle cx="38" cy="24" r="5"/><circle cx="10" cy="24" r="5"/><circle cx="36.12" cy="17" r="5"/><circle cx="11.88" cy="31" r="5"/><circle cx="31" cy="11.88" r="5"/><circle cx="17" cy="36.12" r="5"/></g><path d="m14.101 22h19.799v4h-19.799z" fill="#fff" transform="matrix(.707 -.707 .707 .707 -9.941 24)"/><path d="m22 14.101h4v19.799h-4z" fill="#fff" transform="matrix(.707 -.707 .707 .707 -9.941 24)"/></svg>